<?xml version="1.0" encoding="utf-8"?>
<!-- Generator: Adobe Illustrator 16.0.0, SVG Export Plug-In . SVG Version: 6.00 Build 0)  -->
<!DOCTYPE svg PUBLIC "-//W3C//DTD SVG 1.1//EN" "http://www.w3.org/Graphics/SVG/1.1/DTD/svg11.dtd">
<svg version="1.1" id="Layer_1" xmlns="http://www.w3.org/2000/svg" xmlns:xlink="http://www.w3.org/1999/xlink" x="0px" y="0px"
	 width="150px" height="150px" viewBox="0 0 150 150" enable-background="new 0 0 150 150" xml:space="preserve">
<g>
	<g>
		<g>
			<g>
				<path fill="#463015" d="M53.771,44.113c0,0-6.984,31.462-29.101,21.843c-22.126-9.625-7.705-37.953,12.284-34.25
					C56.941,35.41,53.771,44.113,53.771,44.113z"/>
				<path fill="#463015" d="M105.451,82.229c0,0-28,15.963-12.273,34.258c15.726,18.293,38.534-3.846,29.093-21.852
					C112.827,76.631,105.451,82.229,105.451,82.229z"/>
				<path fill="#DED0C4" d="M111.642,27.344l0.067-0.097c-0.873-0.64-1.73-1.25-2.591-1.866c-0.845-0.64-1.679-1.283-2.552-1.924
					l-0.067,0.094C69-2.268,38.849-2.565,18.132,25.519c-21.666,29.372-3.237,45.766,3.757,44.205
					c6.997-1.564,2.782-3.768,2.782-3.768S7.27,57.865,18.545,42.571c11.277-15.289,29.201,6.188,29.201,6.188l-37.857,67.18
					l18.343,13.723l-0.386,0.527l2.765,1.633l2.373,2.158l0.391-0.525l16.848,12.229l54.684-54.764c0,0,25.811,10.777,14.533,26.07
					c-11.277,15.291-24.146,1.057-24.146,1.057s-3.347-3.381-2.779,3.762c0.572,7.148,21.674,19.914,43.339-9.457
					C156.569,84.262,147.379,55.546,111.642,27.344z"/>
			</g>
			<path opacity="0.7" fill="#B07F57" d="M47.746,48.76c0,0,16.764,23.188,57.16,42.16l-54.684,54.764
				c0,0-29.785-17.348-40.333-29.744L47.746,48.76z"/>
		</g>
		<path opacity="0.3" fill="#802118" d="M106.566,23.457l-0.067,0.094C69-2.268,38.849-2.565,18.132,25.519
			c-21.666,29.372-3.237,45.766,3.757,44.205c6.997-1.564,2.782-3.768,2.782-3.768c5.014,2.178,9.245,2.234,12.799,1.039
			L9.889,115.939c4.475,5.262,12.418,11.414,20.08,16.754l79.15-107.313C108.273,24.741,107.439,24.098,106.566,23.457z"/>
	</g>
</g>
</svg>
