<?xml version="1.0" encoding="utf-8"?>
<!-- Generator: Adobe Illustrator 16.0.0, SVG Export Plug-In . SVG Version: 6.00 Build 0)  -->
<!DOCTYPE svg PUBLIC "-//W3C//DTD SVG 1.1//EN" "http://www.w3.org/Graphics/SVG/1.1/DTD/svg11.dtd">
<svg version="1.1" id="Layer_1" xmlns="http://www.w3.org/2000/svg" xmlns:xlink="http://www.w3.org/1999/xlink" x="0px" y="0px"
	 width="150px" height="150px" viewBox="0 0 150 150" enable-background="new 0 0 150 150" xml:space="preserve">
<g>
	<g>
		<path fill="#071B38" d="M74.998,6.824c-37.649,0-68.176,30.523-68.176,68.177c0,37.653,30.526,68.174,68.176,68.174
			c37.656,0,68.18-30.521,68.18-68.174C143.178,37.348,112.654,6.824,74.998,6.824z M74.998,109.309
			c-18.949,0-34.306-15.361-34.306-34.307c0-18.947,15.357-34.31,34.306-34.31c18.952,0,34.315,15.363,34.315,34.31
			C109.313,93.947,93.95,109.309,74.998,109.309z"/>
		<path fill="#11395B" d="M74.03,18.526c-31.189,0-56.477,25.286-56.477,56.476c0,31.188,25.288,56.475,56.477,56.475
			c31.188,0,56.477-25.287,56.477-56.475C130.507,43.812,105.218,18.526,74.03,18.526z M74.998,109.309
			c-18.949,0-34.306-15.361-34.306-34.307c0-18.947,15.357-34.31,34.306-34.31c18.952,0,34.315,15.363,34.315,34.31
			C109.313,93.947,93.95,109.309,74.998,109.309z"/>
		<path opacity="0.3" fill="#143630" d="M74.027,40.743V6.845C36.819,7.372,6.822,37.672,6.822,75.001
			c0,37.331,29.997,67.629,67.205,68.147v-33.883c-18.495-0.521-33.335-15.641-33.335-34.264
			C40.692,56.381,55.533,41.259,74.027,40.743z"/>
	</g>
</g>
</svg>
