<?xml version="1.0" encoding="utf-8"?>
<!-- Generator: Adobe Illustrator 16.0.0, SVG Export Plug-In . SVG Version: 6.00 Build 0)  -->
<!DOCTYPE svg PUBLIC "-//W3C//DTD SVG 1.1//EN" "http://www.w3.org/Graphics/SVG/1.1/DTD/svg11.dtd">
<svg version="1.1" id="Layer_1" xmlns="http://www.w3.org/2000/svg" xmlns:xlink="http://www.w3.org/1999/xlink" x="0px" y="0px"
	 width="150px" height="150px" viewBox="0 0 150 150" enable-background="new 0 0 150 150" xml:space="preserve">
<g>
	<g>
		<g>
			<path fill="#81304A" d="M75.727,13.036c-34.16,0-61.854,27.695-61.854,61.857c0,34.16,27.693,61.854,61.854,61.854
				c34.16,0,61.859-27.693,61.859-61.854C137.586,40.731,109.887,13.036,75.727,13.036z M75.727,122.654
				c-26.38,0-47.762-21.381-47.762-47.762c0-26.379,21.382-47.763,47.762-47.763c26.378,0,47.761,21.384,47.761,47.763
				C123.488,101.273,102.105,122.654,75.727,122.654z"/>
			<path fill="#DECCE4" d="M74.849,18.43c-31.186,0-56.466,25.281-56.466,56.461c0,31.181,25.28,56.461,56.466,56.461
				c31.178,0,56.456-25.28,56.456-56.461C131.305,43.71,106.027,18.43,74.849,18.43z M75.727,122.512
				c-26.299,0-47.618-21.319-47.618-47.619c0-26.298,21.319-47.619,47.618-47.619c26.298,0,47.619,21.321,47.619,47.619
				C123.346,101.192,102.025,122.512,75.727,122.512z"/>
		</g>
		<path opacity="0.3" fill="#DC4798" d="M74.844,27.151V13.057c-33.752,0.474-60.971,27.969-60.971,61.835
			c0,33.865,27.219,61.357,60.971,61.832v-14.094c-25.967-0.469-46.879-21.652-46.879-47.738
			C27.965,48.808,48.877,27.622,74.844,27.151z"/>
	</g>
</g>
</svg>
