<?xml version="1.0" encoding="utf-8"?>
<!-- Generator: Adobe Illustrator 16.0.0, SVG Export Plug-In . SVG Version: 6.00 Build 0)  -->
<!DOCTYPE svg PUBLIC "-//W3C//DTD SVG 1.1//EN" "http://www.w3.org/Graphics/SVG/1.1/DTD/svg11.dtd">
<svg version="1.1" id="Layer_1" xmlns="http://www.w3.org/2000/svg" xmlns:xlink="http://www.w3.org/1999/xlink" x="0px" y="0px"
	 width="150px" height="150px" viewBox="0 0 150 150" enable-background="new 0 0 150 150" xml:space="preserve">
<g>
	<g>
		<path fill="#AE213A" d="M74.178,142.572c-39.146,0-71.069-25.059-71.069-64.197c0-39.144,31.922-69.781,71.069-69.781
			c39.143,0,73.18,30.637,73.18,69.781C147.357,117.514,113.32,142.572,74.178,142.572z"/>
		<path fill="#CD4358" d="M74.27,136.664c-35.691,0-64.799-22.848-64.799-58.535c0-35.692,29.108-63.624,64.799-63.624
			s66.732,27.932,66.732,63.624C141.002,113.816,109.961,136.664,74.27,136.664z"/>
		<path opacity="0.3" fill="#88171A" d="M74.178,8.594c-39.146,0-71.069,30.637-71.069,69.781c0,39.092,31.846,64.137,70.924,64.197
			C73.779,100.338,73.334,10.859,74.178,8.594z"/>
		<g>
			<g>
				<path fill="#CED2B6" d="M46.348,50.336c3.355-2.683,11.406-4.025,10.736,2.685c-1.344,8.053-16.775,4.029-10.066-3.355"/>
			</g>
			<g>
				<path fill="#CED2B6" d="M91.977,57.05c0.668,1.339,4.023,5.367,3.354,7.379C90.633,73.823,81.238,51.009,91.977,57.05"/>
			</g>
			<g>
				<path fill="#CED2B6" d="M88.023,114.248c0.67,1.344,4.027,5.367,3.354,7.379C86.682,131.021,77.289,108.209,88.023,114.248"/>
			</g>
			<g>
				<path fill="#CED2B6" d="M31.902,98.896c0.668,1.342,4.023,5.367,3.354,7.381C30.559,115.672,21.164,92.857,31.902,98.896"/>
			</g>
			<g>
				<path fill="#CED2B6" d="M112.104,46.985c-2.014,3.352,2.686,5.367,5.369,4.694C126.865,49.666,114.119,39.601,112.104,46.985"/>
			</g>
			<g>
				<path fill="#CED2B6" d="M51.715,89.254c-2.012,4.027,4.699,6.713,8.053,5.369c9.395-4.699-8.053-14.092-7.383-4.699"/>
			</g>
			<g>
				<path fill="#CED2B6" d="M46.111,28.353c-2.014,4.026,4.697,6.71,8.053,5.368c9.396-4.698-8.053-14.092-7.381-4.698"/>
			</g>
			<g>
				<path fill="#CED2B6" d="M94.479,88.736c2.014,4.027,6.039,10.738,0,12.75c-14.764,4.697-11.211-22.455,0.867-11.047"/>
			</g>
			<g>
				<path fill="#CED2B6" d="M108.631,80.256c-5.369,3.357,2.684,6.711,5.367,5.369C117.354,82.941,112.654,76.902,108.631,80.256"/>
			</g>
			<g>
				<path fill="#CED2B6" d="M54.398,114.084c-6.037,3.354,2.686,8.047,6.039,6.035c9.396-3.355-0.67-11.408-6.711-5.367"/>
			</g>
			<g>
				<path fill="#CED2B6" d="M28.9,79.189c-2.684,0.672-2.684,3.355,0,4.025c8.725,3.357,0-12.078-0.672-4.025"/>
			</g>
			<g>
				<path fill="#CED2B6" d="M67.146,69.794c-2.684,1.343-2.684,4.699,0.672,6.041c10.064,3.354,0.672-13.419-2.014-4.698"/>
			</g>
			<g>
				<path fill="#CED2B6" d="M72.514,29.538c-3.352,2.012,0.674,6.038,4.027,6.038c0.67-2.685-0.67-5.367-2.684-4.696"/>
			</g>
			<g>
				<path fill="#CED2B6" d="M24.205,50.336c-8.053,3.358,12.078,10.068,6.039-2.683c-2.686,0-4.697,1.343-6.039,3.355"/>
			</g>
			<g>
				<path fill="#CED2B6" d="M113.086,101.818c-8.053,3.355,12.08,10.066,6.039-2.682c-2.686,0-4.695,1.342-6.039,3.355"/>
			</g>
			<g>
				<path fill="#CED2B6" d="M127.939,69.875c-3.355,2.012,0.67,6.709,4.027,4.024C135.32,70.543,131.293,67.861,127.939,69.875"/>
			</g>
			<g>
				<path fill="#CED2B6" d="M95.018,27.759c-3.355,2.012,0.67,6.71,4.025,4.027C102.398,28.431,98.371,25.747,95.018,27.759"/>
			</g>
		</g>
	</g>
</g>
</svg>
