<?xml version="1.0" encoding="utf-8"?>
<!-- Generator: Adobe Illustrator 16.0.0, SVG Export Plug-In . SVG Version: 6.00 Build 0)  -->
<!DOCTYPE svg PUBLIC "-//W3C//DTD SVG 1.1//EN" "http://www.w3.org/Graphics/SVG/1.1/DTD/svg11.dtd">
<svg version="1.1" id="Layer_1" xmlns="http://www.w3.org/2000/svg" xmlns:xlink="http://www.w3.org/1999/xlink" x="0px" y="0px"
	 width="150px" height="150px" viewBox="0 0 150 150" enable-background="new 0 0 150 150" xml:space="preserve">
<g>
	<g>
		<g>
			<g>
				<path fill="#287138" d="M24.059,139.339c0,0-12.372-131.113,108.508-129.124C132.567,10.215,165.048,131.826,24.059,139.339z"/>
				<path fill="#104F27" d="M31.187,133.099l98.151-115.903C129.338,17.196,77.043,64.185,31.187,133.099z"/>
				<polygon fill="#104F27" points="98.412,20.779 93.037,58.337 89.801,61.533 				"/>
				<polygon fill="#104F27" points="129.201,50.775 93.037,58.337 89.801,61.533 				"/>
				<polygon fill="#104F27" points="71.402,79.145 74.1,37.383 74.087,75.912 				"/>
				<polygon fill="#104F27" points="78.804,76.876 118.029,76.253 74.797,81.61 				"/>
				<polygon fill="#104F27" points="57.98,98.381 51.654,64.991 52.959,102.471 				"/>
				<polygon fill="#104F27" points="56.679,97.457 90.338,92.719 54.423,103.523 				"/>
			</g>
			<path opacity="0.3" fill="#143630" d="M132.567,10.215C11.688,8.226,24.059,139.339,24.059,139.339
				c0.634-0.032,1.233-0.085,1.857-0.124c28.44-34.68,86.225-103.698,106.831-128.292C132.636,10.466,132.567,10.215,132.567,10.215
				z"/>
		</g>
	</g>
</g>
</svg>
