<?xml version="1.0" encoding="utf-8"?>
<!-- Generator: Adobe Illustrator 16.0.0, SVG Export Plug-In . SVG Version: 6.00 Build 0)  -->
<!DOCTYPE svg PUBLIC "-//W3C//DTD SVG 1.1//EN" "http://www.w3.org/Graphics/SVG/1.1/DTD/svg11.dtd">
<svg version="1.1" id="Layer_1" xmlns="http://www.w3.org/2000/svg" xmlns:xlink="http://www.w3.org/1999/xlink" x="0px" y="0px"
	 width="1000px" height="1000px" viewBox="0 0 1000 1000" enable-background="new 0 0 1000 1000" xml:space="preserve">
<ellipse fill="#FAA426" cx="499.966" cy="500" rx="500.033" ry="500"/>
<path fill="none" stroke="#FEDD0D" stroke-width="14.7054" stroke-linecap="round" stroke-linejoin="round" stroke-miterlimit="10" d="
	M28.345,529.228c0,0,59.031,434.031,474.625,434.031c415.591,0,468.617-434.031,468.617-434.031"/>
<path fill="#FABE17" d="M499.966,887.405c-213.975,0-387.43-173.445-387.43-387.404c0-213.957,173.456-387.406,387.43-387.406
	c213.972,0,387.431,173.45,387.431,387.406C887.396,713.96,713.938,887.405,499.966,887.405z"/>
<ellipse fill="#EF4027" cx="499.966" cy="496" rx="433.235" ry="433.206"/>
<g>
	<path fill="#FEF05A" d="M820.745,434.865c11.902-3.966,27.77-3.966,35.704,7.935c11.901,17.85-9.918,31.734-21.817,43.635
		c-19.84,19.835-11.899,31.735,5.951,51.569c13.883,13.883,45.617,35.698,21.814,53.552c-15.866,11.899-53.553,3.967-61.49,25.783
		c-9.913,21.82,17.854,55.534,15.869,81.321c-1.984,31.734-29.75,27.766-51.572,17.848c-23.799-9.916-31.736-15.865-39.672,13.887
		c-5.946,21.814-11.898,63.467-39.669,65.453c-21.814,1.982-39.67-25.787-59.507-17.854c-25.787,9.916-29.75,55.537-47.604,75.369
		c-23.8,23.803-43.638-3.967-59.506-21.816c-23.803-21.82-41.653-21.82-67.439-3.967c-17.852,11.898-43.637,37.682-65.455,15.869
		c-15.868-19.836-9.922-53.555-27.77-71.404c-15.871-15.867-45.624,0-65.459,1.982c-73.391,7.934-31.736-89.254-77.357-111.07
		c-19.835-9.916-41.654-1.984-57.521-23.798c-15.868-23.803-13.887-61.489-3.967-87.272c3.967-9.916,9.918-21.816,17.852-31.735
		c-33.724-25.783-71.41-91.236-11.904-113.053c17.855-5.95,37.689-1.984,49.588-19.834c11.903-19.834,1.986-53.554-1.98-75.371
		c-1.984-19.833-1.984-43.633,21.818-49.584c17.852-5.95,37.687,5.951,55.539,0c37.686-13.885,11.9-93.22,59.505-95.203
		c21.818-1.984,37.687,5.949,57.525-5.951c15.868-9.916,27.769-31.734,47.604-31.734c19.834,1.984,33.72,21.818,51.571,25.785
		c23.807,3.967,39.67-13.885,59.504-17.852c61.493-17.85,43.638,73.387,93.229,69.42c21.819-1.982,51.571-21.816,69.422-5.952
		c15.869,13.886,11.902,39.669,25.787,55.537c17.851,17.851,49.589,15.867,55.542,43.634c3.966,21.818-17.853,49.587-3.972,67.438
		c11.904,13.881,29.755,7.934,29.755,31.734c0,9.916-9.917,25.783-3.966,33.717"/>
</g>
</svg>
