<?xml version="1.0" encoding="utf-8"?>
<!-- Generator: Adobe Illustrator 16.0.0, SVG Export Plug-In . SVG Version: 6.00 Build 0)  -->
<!DOCTYPE svg PUBLIC "-//W3C//DTD SVG 1.1//EN" "http://www.w3.org/Graphics/SVG/1.1/DTD/svg11.dtd">
<svg version="1.1" id="Layer_1" xmlns="http://www.w3.org/2000/svg" xmlns:xlink="http://www.w3.org/1999/xlink" x="0px" y="0px"
	 width="150px" height="150px" viewBox="0 0 150 150" enable-background="new 0 0 150 150" xml:space="preserve">
<g>
	<g>
		<g>
			<path fill="#39A548" d="M112.568,112.565c18.062-2.979,31.841-18.658,31.841-37.564c0-18.909-13.779-34.587-31.841-37.567
				C109.585,19.37,93.907,5.591,75,5.591c-18.908,0-34.591,13.779-37.566,31.843C19.369,40.414,5.591,56.092,5.591,75.001
				c0,18.906,13.778,34.585,31.843,37.564c2.975,18.063,18.658,31.844,37.566,31.844
				C93.907,144.409,109.585,130.628,112.568,112.565z M47.023,102.975c-13.452-2.219-23.712-13.894-23.712-27.974
				c0-14.079,10.261-25.755,23.712-27.974C49.242,33.577,60.921,23.313,75,23.313c14.081,0,25.754,10.264,27.971,23.713
				c13.453,2.219,23.716,13.895,23.716,27.974c0,14.08-10.263,25.755-23.716,27.974c-2.217,13.451-13.89,23.712-27.971,23.712
				C60.921,126.687,49.242,116.426,47.023,102.975z"/>
			<path fill="#BCD85A" d="M108.614,108.614c16.163-2.663,28.493-16.696,28.493-33.613c0-16.919-12.33-30.95-28.493-33.615
				C105.947,25.222,91.917,12.89,75,12.89c-16.92,0-30.949,12.332-33.617,28.496C25.22,44.051,12.889,58.082,12.889,75.001
				c0,16.917,12.331,30.95,28.494,33.613C44.051,124.78,58.08,137.109,75,137.109C91.917,137.109,105.947,124.78,108.614,108.614z
				 M51.191,98.808c-11.451-1.89-20.182-11.826-20.182-23.807c0-11.984,8.731-21.921,20.182-23.809
				C53.077,39.744,63.016,31.011,75,31.011c11.983,0,21.92,8.733,23.809,20.181c11.445,1.888,20.178,11.824,20.178,23.809
				c0,11.98-8.732,21.917-20.178,23.807C96.92,110.254,86.983,118.988,75,118.988C63.016,118.988,53.077,110.254,51.191,98.808z"/>
		</g>
		<path opacity="0.3" fill="#1F4020" d="M98.809,51.192c11.445,1.888,20.178,11.824,20.178,23.809h25.423
			c0-18.909-13.779-34.587-31.841-37.567C109.585,19.37,93.907,5.591,75,5.591c-18.908,0-34.591,13.779-37.566,31.843
			C19.369,40.414,5.591,56.092,5.591,75.001h25.418c0-11.984,8.731-21.921,20.182-23.809C53.077,39.744,63.016,31.011,75,31.011
			C86.983,31.011,96.92,39.744,98.809,51.192z"/>
	</g>
</g>
</svg>
