<?xml version="1.0" encoding="utf-8"?>
<!-- Generator: Adobe Illustrator 16.0.0, SVG Export Plug-In . SVG Version: 6.00 Build 0)  -->
<!DOCTYPE svg PUBLIC "-//W3C//DTD SVG 1.1//EN" "http://www.w3.org/Graphics/SVG/1.1/DTD/svg11.dtd">
<svg version="1.1" id="Layer_1" xmlns="http://www.w3.org/2000/svg" xmlns:xlink="http://www.w3.org/1999/xlink" x="0px" y="0px"
	 width="150px" height="150px" viewBox="0 0 150 150" enable-background="new 0 0 150 150" xml:space="preserve">
<g>
	<g>
		<path fill="#FCE327" d="M129.139,106.58c-5.72-2.664,4.245-7.865,8.953-2.449c4.706,5.416,12.788-35.326,6.154-34.933
			c-6.633,0.395-7.482-6.892-0.771-5.961c6.71,0.931-10.668-38.13-14.996-32.146c-4.326,5.99-10.474-2.544-4.056-4.435
			c6.414-1.893-44.945-28.953-42.482-19.82c2.459,9.135-9.549,6.52-6.006-0.264c3.543-6.785-37.506,4.892-34.268,9.164
			c3.238,4.271-3.616,9.404-5.069,3.235c-1.447-6.167-30.81,24.263-22.811,27.163c7.997,2.903,2.866,7.496-2.308,5.551
			C6.305,49.743-2.347,88.447,8.388,87.023c10.735-1.418,5.032,4.004,1.298,5.873c-3.731,1.875,10.361,33.523,17.739,30.717
			c7.375-2.811,7.824-0.678,4.431,4.061c-3.389,4.738,30.858,21.367,32.142,15.008c1.279-6.363,8.047-4.715,5.957,0.775
			c-2.088,5.49,37.807-1.293,34.938-6.139c-2.871-4.852,4.419-8.039,5.329-2.779c0.912,5.264,26.045-22.348,25.091-25.078
			C134.354,106.734,129.139,106.58,129.139,106.58z M75.935,94.768c-25.314,0-25.314-39.248,0-39.248
			C101.244,55.52,101.244,94.768,75.935,94.768z"/>
		<path opacity="0.15" fill="#802118" d="M75.935,55.52c0.424,0,0.842,0.016,1.254,0.038V12.2c-1.616-0.905-2.66-2.936-1.254-5.627
			c3.543-6.785-37.506,4.892-34.268,9.164c3.238,4.271-3.616,9.404-5.069,3.235c-1.447-6.167-30.81,24.263-22.811,27.163
			c7.997,2.903,2.866,7.496-2.308,5.551C6.305,49.743-2.347,88.447,8.388,87.023c10.735-1.418,5.032,4.004,1.298,5.873
			c-3.731,1.875,10.361,33.523,17.739,30.717c7.375-2.811,7.824-0.678,4.431,4.061c-3.389,4.738,30.858,21.367,32.142,15.008
			c1.279-6.363,8.047-4.715,5.957,0.775c-0.627,1.654,2.559,2.191,7.234,2.008v-50.73c-0.412,0.023-0.83,0.033-1.254,0.033
			C50.621,94.768,50.621,55.52,75.935,55.52z"/>
		<g>
			<g>
				<polygon fill="#F6EAC2" points="45.352,28.964 66.563,57.898 47.111,26.875 				"/>
				<polygon fill="#F6EAC2" points="78.231,19.577 77.188,55.44 80.905,19.012 				"/>
				<polygon fill="#F6EAC2" points="115.718,36.251 89.292,60.52 117.988,37.771 				"/>
			</g>
			<g>
				<polygon fill="#F6EAC2" points="131.123,67.77 96.236,76.135 132.37,70.2 				"/>
				<polygon fill="#F6EAC2" points="125.94,99.191 92.081,87.328 125.672,101.908 				"/>
				<polygon fill="#F6EAC2" points="102.376,125.443 87.264,92.908 100.244,127.146 				"/>
			</g>
		</g>
		<g>
			<g>
				<polygon fill="#F6EAC2" points="69.232,131.986 70.276,96.121 66.563,132.551 				"/>
				<polygon fill="#F6EAC2" points="37.051,117.771 63.475,93.504 34.783,116.252 				"/>
			</g>
			<g>
				<polygon fill="#F6EAC2" points="20.367,88.035 55.253,79.67 19.123,85.605 				"/>
				<polygon fill="#F6EAC2" points="22.348,54.83 56.208,66.69 22.617,52.116 				"/>
			</g>
		</g>
		<g>
			<path fill="#F1A720" d="M61.184,57.898c0,0-17.427-27.856-21.906-25.042C34.8,35.671,61.184,57.898,61.184,57.898z"/>
			<path fill="#F1A720" d="M58.043,63.814c0,0-18.089-15.739-20.617-12.822C34.895,53.911,58.043,63.814,58.043,63.814z"/>
		</g>
		<g>
			<path fill="#F1A720" d="M55.761,70.374c0,0-29.889-13.643-32.078-8.825S55.761,70.374,55.761,70.374z"/>
			<path fill="#F1A720" d="M56.402,77.039c0,0-23.768-3.164-24.268,0.664C31.63,81.531,56.402,77.039,56.402,77.039z"/>
		</g>
		<g>
			<path fill="#F1A720" d="M56.143,83.391c0,0-31.923,7.783-30.658,12.92C26.746,101.447,56.143,83.391,56.143,83.391z"/>
			<path fill="#F1A720" d="M60.771,88.23c0,0-20.629,12.225-18.652,15.543C44.091,107.092,60.771,88.23,60.771,88.23z"/>
		</g>
		<g>
			<path fill="#F1A720" d="M63.4,96.281c0,0-25.332,20.928-21.958,24.996C44.822,125.352,63.4,96.281,63.4,96.281z"/>
			<path fill="#F1A720" d="M68.657,97.229c0,0-13.229,20-10.005,22.123C61.872,121.477,68.657,97.229,68.657,97.229z"/>
		</g>
		<g>
			<path fill="#F1A720" d="M98.377,84.096c0,0,29.94,13.531,32.111,8.707C132.652,87.977,98.377,84.096,98.377,84.096z"/>
			<path fill="#F1A720" d="M97.708,77.432c0,0,23.782,3.074,24.27-0.752C122.462,72.849,97.708,77.432,97.708,77.432z"/>
		</g>
		<g>
			<path fill="#F1A720" d="M77.364,98.98c0,0-6.15,32.279-0.951,33.258C81.612,133.219,77.364,98.98,77.364,98.98z"/>
			<path fill="#F1A720" d="M83.682,96.777c0,0,2.579,23.838,6.416,23.416C93.932,119.768,83.682,96.777,83.682,96.777z"/>
		</g>
		<g>
			<path fill="#F1A720" d="M89.976,95.17c0,0,15.502,28.973,20.162,26.467C114.797,119.133,89.976,95.17,89.976,95.17z"/>
			<path fill="#F1A720" d="M93.511,89.482c0,0,16.98,16.926,19.703,14.186C115.935,100.93,93.511,89.482,93.511,89.482z"/>
		</g>
		<g>
			<path fill="#F1A720" d="M95.969,70.712c0,0,32.443-5.215,31.595-10.437C126.712,55.054,95.969,70.712,95.969,70.712z"/>
			<path fill="#F1A720" d="M94.821,64.454c0,0,21.536-10.543,19.834-14.008C112.948,46.984,94.821,64.454,94.821,64.454z"/>
		</g>
		<g>
			<path fill="#F1A720" d="M86.372,56.031c0,0,17.888-27.567,13.441-30.435C95.37,22.724,86.372,56.031,86.372,56.031z"/>
			<path fill="#F1A720" d="M79.686,55.686c0,0,6.619-23.048,2.908-24.107C78.88,30.519,79.686,55.686,79.686,55.686z"/>
		</g>
		<g>
			<path fill="#F1A720" d="M72.249,51.633c0,0,4.074-32.606-1.176-33.25C65.821,17.741,72.249,51.633,72.249,51.633z"/>
			<path fill="#F1A720" d="M67.775,54.55c0,0-4.098-23.627-7.901-22.96C56.076,32.258,67.775,54.55,67.775,54.55z"/>
		</g>
	</g>
</g>
</svg>
