<?xml version="1.0" encoding="utf-8"?>
<!-- Generator: Adobe Illustrator 16.0.0, SVG Export Plug-In . SVG Version: 6.00 Build 0)  -->
<!DOCTYPE svg PUBLIC "-//W3C//DTD SVG 1.1//EN" "http://www.w3.org/Graphics/SVG/1.1/DTD/svg11.dtd">
<svg version="1.1" id="Layer_1" xmlns="http://www.w3.org/2000/svg" xmlns:xlink="http://www.w3.org/1999/xlink" x="0px" y="0px"
	 width="150px" height="150px" viewBox="0 0 150 150" enable-background="new 0 0 150 150" xml:space="preserve">
<g>
	<g>
		<g>
			<path fill="#ED2224" d="M113.6,37.074C110.592,18.837,94.76,4.925,75.673,4.925c-19.087,0-34.919,13.912-37.927,32.148
				C19.508,40.082,5.597,55.912,5.597,75.001c0,19.085,13.911,34.916,32.149,37.925c3.008,18.236,18.839,32.148,37.927,32.148
				c19.086,0,34.918-13.912,37.926-32.148c18.236-3.01,32.148-18.84,32.148-37.925C145.748,55.912,131.836,40.082,113.6,37.074z
				 M103.916,103.241c-2.24,13.582-14.029,23.941-28.243,23.941c-14.214,0-26.005-10.359-28.242-23.941
				c-13.58-2.24-23.939-14.027-23.939-28.24c0-14.215,10.359-26.004,23.939-28.244c2.237-13.58,14.028-23.938,28.242-23.938
				c14.213,0,26.002,10.357,28.243,23.938c13.579,2.24,23.938,14.029,23.938,28.244C127.854,89.214,117.495,101.001,103.916,103.241
				z"/>
			<path fill="#F26A47" d="M109.611,41.062c-2.69-16.318-16.859-28.766-33.938-28.766c-17.082,0-31.246,12.447-33.938,28.766
				c-16.318,2.693-28.767,16.857-28.767,33.939c0,17.08,12.449,31.244,28.767,33.935c2.693,16.318,16.857,28.768,33.938,28.768
				c17.079,0,31.248-12.449,33.938-28.768c16.318-2.691,28.764-16.855,28.764-33.935C138.375,57.919,125.93,43.755,109.611,41.062z
				 M99.736,99.062c-1.91,11.57-11.953,20.395-24.063,20.395c-12.113,0-22.155-8.824-24.061-20.395
				c-11.568-1.908-20.396-11.951-20.396-24.06c0-12.109,8.828-22.154,20.396-24.063c1.906-11.568,11.948-20.395,24.061-20.395
				c12.11,0,22.153,8.826,24.063,20.395c11.568,1.908,20.395,11.953,20.395,24.063C120.131,87.11,111.305,97.153,99.736,99.062z"/>
		</g>
		<path opacity="0.3" fill="#802118" d="M50.291,50.966c1.906-11.559,11.936-20.379,24.035-20.379V4.925
			c-19.09,0-34.919,13.912-37.927,32.148C18.163,40.082,4.252,55.912,4.252,75.001c0,19.085,13.911,34.916,32.147,37.925
			c3.008,18.236,18.837,32.148,37.927,32.148v-25.664c-12.099,0-22.129-8.816-24.035-20.373
			C38.732,97.13,29.916,87.095,29.916,75.001C29.916,62.902,38.732,52.871,50.291,50.966z"/>
	</g>
</g>
</svg>
